<?xml version="1.0" encoding="UTF-8" standalone="no"?> <svg id="Layer_1" data-name="Layer 1" xmlns="http://www.w3.org/2000/svg" viewBox="0 0 128 128"><defs><style>.cls-1{fill:#2d3e50;}</style></defs><title>v</title><path class="cls-1" d="M53.70307,79.52391a18.086,18.086,0,0,0-5.52225-2.65121l-.7539,29.08144-.30783,11.968a15.93981,15.93981,0,0,0,0,3.10353,5.66822,5.66822,0,0,0,5.30867,3.88254,5.80467,5.80467,0,0,0,5.31492-3.60611s2.11722-15.69981,3.9077-27.06476c.11937-.76644.23874-1.50776.35182-2.23026a8.94848,8.94848,0,0,0-.19475-1.07431A20.65478,20.65478,0,0,0,53.70307,79.52391Z"/><path class="cls-1" d="M80.548,105.11227l-.72878-28.26469a17.92624,17.92624,0,0,0-5.629,2.67633,20.59511,20.59511,0,0,0-8.09808,11.4089c-.06285.2262-.10679.46493-.15706.7225.33924,2.06691.69734,4.36,1.05545,6.72222,0,.01254.00629.02512.00629.03769.4963,3.26688.9926,6.67195,1.445,9.82575.01258.1005.02512.20729.03769.30783.18847,1.30047.36439,2.557.534,3.74431.72878,5.21446,1.24395,9.009,1.24395,9.009a5.80471,5.80471,0,0,0,5.31492,3.60611,5.66822,5.66822,0,0,0,5.30867-3.88254,15.93981,15.93981,0,0,0,0-3.10353Z"/><path class="cls-1" d="M99.52719,22.20921l-.20733-.13823a3.65567,3.65567,0,0,0-4.95682.88585.13089.13089,0,0,0-.02515.03769c-2.12972,2.87733-6.16307,7.72111-11.46545,10.55449a18.948,18.948,0,0,1-5.77985,2.02922,6.95094,6.95094,0,0,0-4.03332,1.30047,15.49345,15.49345,0,0,1-8.99646,2.86479h-.12562a15.49345,15.49345,0,0,1-8.99646-2.86479,6.95094,6.95094,0,0,0-4.03332-1.30047A18.948,18.948,0,0,1,45.12756,33.549c-5.30238-2.83339-9.33574-7.67716-11.46545-10.55449a.13089.13089,0,0,0-.02515-.03769,3.65567,3.65567,0,0,0-4.95682-.88585l-.20733.13823a3.65189,3.65189,0,0,0-1.26907,4.65527c.55286,1.12454,1.26907,2.45642,2.10464,3.89512a24.27144,24.27144,0,0,0,3.87626,4.61129c3.32969,3.38624,6.91068,6.51489,10.48539,9.63728a46.0237,46.0237,0,0,1,3.75689,3.31711c2.70144,2.74546.96123,20.67553.88585,23.49005,5.20813.55286,11.69161,1.068,15.637.70992a.20407.20407,0,0,0,.10054,0c3.94535.3581,10.42884-.15706,15.637-.70992-.07539-2.81452-1.8156-20.74459.88585-23.49005A46.0237,46.0237,0,0,1,84.33,45.00818c3.57471-3.12239,7.15571-6.251,10.48539-9.63728a24.27144,24.27144,0,0,0,3.87626-4.61129c.83558-1.4387,1.55178-2.77058,2.10464-3.89512A3.65189,3.65189,0,0,0,99.52719,22.20921Z"/><path class="cls-1" d="M63.94386,30.7596h.113a13.83394,13.83394,0,0,0,0-27.66785h-.113a13.83394,13.83394,0,0,0,0,27.66785Z"/></svg>