<svg id="Capa_1" enable-background="new 0 0 482 482" height="512" viewBox="0 0 482 482" width="512" xmlns="http://www.w3.org/2000/svg"><g><path d="m331 23.5v105h-30v-75h-60l-15-15 15-15z" fill="#ffd087"/><path d="m241 23.5v30h-60v75h-30v-105z" fill="#ffe487"/><path d="m45 98.5c-24.85 0-45 20.15-45 45v270c0 24.85 20.15 45 45 45h60v-360z" fill="#ff6e8d"/><path d="m437 98.5h-60v360h60c24.85 0 45-20.15 45-45v-270c0-24.85-20.15-45-45-45z" fill="#e85f7d"/><path d="m377 98.5h-136l-90 180 90 180h136c24.85 0 45-20.15 45-45v-270c0-24.85-20.15-45-45-45z" fill="#ff6e8d"/><path d="m105 98.5c-24.85 0-45 20.15-45 45v270c0 24.85 20.15 45 45 45h136v-360z" fill="#ff8ba4"/><path d="m376 218.5v120h-75v75h-60l-60-135 60-135h60v75z" fill="#fffada"/><path d="m241 143.5v270h-60v-75h-75v-120h75v-75z" fill="#fff"/></g></svg>