<svg id="Capa_1" enable-background="new 0 0 512 512" height="512" viewBox="0 0 512 512" width="512" xmlns="http://www.w3.org/2000/svg"><g><g><ellipse cx="318.088" cy="133.564" fill="#faf7f5" rx="113.845" ry="113.852"/><path d="m368.955 114.625h-31.929v-31.932h-37.877v31.932h-31.929v37.879h31.929v31.931h37.877v-31.931h31.929z" fill="#ff7d97"/><path d="m10 208.883h49.245v235.915h-49.245z" fill="#ccf5fc"/><path d="m452.755 274.755h49.245v170.042h-49.245z" fill="#ccf5fc"/><g><path d="m59.245 402.968v41.83h393.51v-41.83" fill="#99ebfa"/><path d="m452.755 402.968v-75.362h-393.51v75.362" fill="#fff3da"/></g><path d="m192.489 327.606h-133.244v-29.048c0-18.14 14.705-32.845 32.845-32.845h67.553c18.14 0 32.845 14.705 32.845 32.845v29.048z" fill="#ffe6b4"/><g fill="#ccf5fc"><path d="m10 444.798h107.674v47.49h-107.674z"/><path d="m394.326 444.798h107.674v47.49h-107.674z"/></g></g><g><g><g><path d="m318.088 257.416c68.288 0 123.845-55.56 123.845-123.852s-55.557-123.851-123.845-123.851-123.845 55.56-123.845 123.852 55.557 123.851 123.845 123.851zm0-227.703c57.26 0 103.845 46.588 103.845 103.852s-46.585 103.852-103.845 103.852-103.845-46.588-103.845-103.852 46.585-103.852 103.845-103.852z"/><path d="m267.22 162.504h21.93v21.932c0 5.522 4.478 10 10 10h37.877c5.522 0 10-4.478 10-10v-21.932h21.929c5.522 0 10-4.478 10-10v-37.879c0-5.522-4.478-10-10-10h-21.929v-21.932c0-5.522-4.478-10-10-10h-37.877c-5.522 0-10 4.478-10 10v21.932h-21.93c-5.522 0-10 4.478-10 10v37.879c0 5.522 4.477 10 10 10zm10-37.879h21.93c5.522 0 10-4.478 10-10v-21.932h17.877v21.932c0 5.522 4.478 10 10 10h21.929v17.879h-21.929c-5.522 0-10 4.478-10 10v21.932h-17.877v-21.932c0-5.522-4.478-10-10-10h-21.93z"/><path d="m502 264.755h-49.245c-5.522 0-10 4.478-10 10v42.852h-240.266v-19.048c0-23.625-19.221-42.846-42.846-42.846h-67.552c-8.393 0-16.229 2.426-22.846 6.613v-53.443c0-5.522-4.478-10-10-10h-49.245c-5.522 0-10 4.478-10 10v283.404c0 5.522 4.478 10 10 10h107.674c5.522 0 10-4.478 10-10v-37.489h256.652v37.489c0 5.522 4.478 10 10 10h107.674c5.522 0 10-4.478 10-10v-217.532c0-5.523-4.478-10-10-10zm-39.245 20h29.245v150.043h-29.245zm-20 108.213h-141.549c-5.522 0-10 4.478-10 10s4.478 10 10 10h141.549v21.83h-373.51v-21.83h141.549c5.522 0 10-4.478 10-10s-4.478-10-10-10h-141.549v-55.361h373.51zm-350.664-117.255h67.553c12.598 0 22.846 10.249 22.846 22.846v19.048h-113.245v-19.048c0-12.597 10.248-22.846 22.846-22.846zm-72.091-56.83h29.245v215.915h-29.245zm87.674 263.404h-87.674v-27.489h87.674zm384.326 0h-87.674v-27.489h87.674z"/><path d="m246.95 406.79c1.622 3.954 5.757 6.49 10.018 6.147 4.179-.336 7.779-3.335 8.871-7.381 1.06-3.926-.467-8.26-3.755-10.654-3.307-2.407-7.876-2.559-11.318-.34-4.01 2.585-5.65 7.821-3.816 12.228z"/></g></g></g></g></svg>