<svg id="Capa_1" enable-background="new 0 0 512 512" height="512" viewBox="0 0 512 512" width="512" xmlns="http://www.w3.org/2000/svg"><g><g><path d="m388.229 420.797h-264.458c-16.569 0-30-13.431-30-30v-353.297c0-16.569 13.431-30 30-30h264.457c16.569 0 30 13.431 30 30v353.297c.001 16.569-13.431 30-29.999 30z" fill="#f7f6f7"/><path d="m388.229 7.5h-30c16.569 0 30 13.432 30 30v353.297c0 16.569-13.431 30-30 30h30c16.569 0 30-13.431 30-30v-353.297c0-16.568-13.432-30-30-30z" fill="#e2dfe3"/><path d="m433.5 504.5h-355c-16.569 0-30-13.431-30-30v-242c0-16.569 13.431-30 30-30h116.444c10.031 0 19.398 5.013 24.962 13.359l12.188 18.282c5.564 8.346 14.931 13.359 24.962 13.359h176.444c16.569 0 30 13.431 30 30v197c0 16.569-13.431 30-30 30z" fill="#ffe07d"/><g><path d="m433.5 247.5h-30c16.569 0 30 13.432 30 30v197c0 16.568-13.431 30-30 30h30c16.569 0 30-13.432 30-30v-197c0-16.568-13.431-30-30-30z" fill="#ffd064"/></g><g><circle cx="256" cy="376" fill="#dd636e" r="88.5"/><path d="m256 287.5c-5.112 0-10.123.441-15 1.277 41.68 7.146 73.5 43.536 73.5 87.223s-31.82 80.076-73.5 87.223c4.877.836 9.888 1.277 15 1.277 48.799 0 88.5-39.701 88.5-88.5s-39.701-88.5-88.5-88.5z" fill="#da4a54"/><path d="m308.5 361h-34.5c-1.657 0-3-1.343-3-3v-34.5c0-3.314-2.686-6-6-6h-18c-3.314 0-6 2.686-6 6v34.5c0 1.657-1.343 3-3 3h-34.5c-3.314 0-6 2.686-6 6v18c0 3.314 2.686 6 6 6h34.5c1.657 0 3 1.343 3 3v34.5c0 3.314 2.686 6 6 6h18c3.314 0 6-2.686 6-6v-34.5c0-1.657 1.343-3 3-3h34.5c3.314 0 6-2.686 6-6v-18c0-3.314-2.686-6-6-6z" fill="#fff"/></g><path d="m349.5 90.5h-187c-5.523 0-10-4.477-10-10v-18c0-5.523 4.477-10 10-10h187c5.523 0 10 4.477 10 10v18c0 5.523-4.477 10-10 10z" fill="#c7c2c9"/></g><path d="m256 280c-33.93 0-65.694 18.248-82.898 47.622-2.093 3.574-.893 8.169 2.681 10.262 3.574 2.094 8.168.894 10.262-2.682 14.524-24.798 41.329-40.202 69.955-40.202 44.664 0 81 36.337 81 81s-36.336 81-81 81-81-36.337-81-81c0-3.508.227-7.037.675-10.489.533-4.108-2.364-7.87-6.472-8.403-4.108-.544-7.87 2.364-8.403 6.472-.531 4.091-.8 8.27-.8 12.421 0 52.935 43.065 96 96 96s96-43.065 96-96-43.065-96.001-96-96.001zm9 30h-18c-7.444 0-13.5 6.056-13.5 13.5v30h-30c-7.444 0-13.5 6.056-13.5 13.5v18c0 7.444 6.056 13.5 13.5 13.5h30v30c0 7.444 6.056 13.5 13.5 13.5h18c7.444 0 13.5-6.056 13.5-13.5v-30h30c7.444 0 13.5-6.056 13.5-13.5v-18c0-7.444-6.056-13.5-13.5-13.5h-30v-30c0-7.444-6.056-13.5-13.5-13.5zm42 58.5v15h-33c-5.79 0-10.5 4.71-10.5 10.5v33h-15v-33c0-5.79-4.71-10.5-10.5-10.5h-33v-15h33c5.79 0 10.5-4.71 10.5-10.5v-33h15v33c0 5.79 4.71 10.5 10.5 10.5zm60-306c0-9.649-7.851-17.5-17.5-17.5h-187c-9.649 0-17.5 7.851-17.5 17.5v18c0 9.649 7.851 17.5 17.5 17.5h187c9.649 0 17.5-7.851 17.5-17.5zm-15 18c0 1.379-1.122 2.5-2.5 2.5h-187c-1.378 0-2.5-1.121-2.5-2.5v-18c0-1.379 1.122-2.5 2.5-2.5h187c1.378 0 2.5 1.121 2.5 2.5zm81.5 159.5h-176.444c-7.54 0-14.539-3.745-18.721-10.02l-12.188-18.281c-6.971-10.456-18.635-16.699-31.203-16.699h-93.674v-157.5c0-12.406 10.093-22.5 22.5-22.5h264.46c12.407 0 22.5 10.094 22.5 22.5v175c0 4.143 3.358 7.5 7.5 7.5s7.5-3.357 7.5-7.5v-175c0-20.678-16.822-37.5-37.5-37.5h-264.46c-20.678 0-37.5 16.822-37.5 37.5v157.5h-7.77c-20.678 0-37.5 16.822-37.5 37.5v242c0 20.678 16.822 37.5 37.5 37.5h355c20.678 0 37.5-16.822 37.5-37.5v-197c0-20.678-16.822-37.5-37.5-37.5zm22.5 234.5c0 12.406-10.093 22.5-22.5 22.5h-355c-12.407 0-22.5-10.094-22.5-22.5v-242c0-12.406 10.093-22.5 22.5-22.5h116.444c7.54 0 14.539 3.745 18.721 10.02l12.188 18.281c6.971 10.456 18.635 16.699 31.203 16.699h176.444c12.407 0 22.5 10.094 22.5 22.5zm-96.5-316.5h-207c-4.142 0-7.5 3.357-7.5 7.5s3.358 7.5 7.5 7.5h207c4.142 0 7.5-3.357 7.5-7.5s-3.358-7.5-7.5-7.5zm0-30h-207c-4.142 0-7.5 3.357-7.5 7.5s3.358 7.5 7.5 7.5h207c4.142 0 7.5-3.357 7.5-7.5s-3.358-7.5-7.5-7.5z"/></g></svg>