<svg height="512" viewBox="0 0 64 64" width="512" xmlns="http://www.w3.org/2000/svg"><g id="outline"><path d="m44.447 43.105-3.447-1.723v-1.382h1a1 1 0 0 0 1-1v-6a1 1 0 0 0 -1-1h-9v-3a5.006 5.006 0 0 0 -5-5v-2h1a1 1 0 0 0 1-1v-6a1 1 0 0 0 -1-1h-20a1 1 0 0 0 -1 1v6a1 1 0 0 0 1 1h1v2a5.006 5.006 0 0 0 -5 5v28a5.006 5.006 0 0 0 5 5h32a3 3 0 0 0 3-3v-15a1 1 0 0 0 -.553-.895zm-13.447-9.105h2v2h2v-2h2v2h2v-2h2v4h-14v-4h2v2h2zm-21-18h2v2h2v-2h2v2h2v-2h2v2h2v-2h2v2h2v-2h2v4h-18zm16 6v2h-14v-2zm-19 7a3 3 0 0 1 3-3h18a3 3 0 0 1 3 3v3h-24zm3 31a3 3 0 0 1 -3-3v-5h16v7a2.966 2.966 0 0 0 .184 1zm13-16v6h-16v-16h18v5a1 1 0 0 0 1 1h1v1.382l-3.447 1.723a1 1 0 0 0 -.553.895zm20 15a1 1 0 0 1 -1 1h-16a1 1 0 0 1 -1-1v-5h18zm0-7h-18v-4h18zm0-6h-18v-1.382l3.447-1.718a1 1 0 0 0 .553-.9v-2h10v2a1 1 0 0 0 .553.9l3.447 1.718z"/><path d="m20 39h-2v-2a1 1 0 0 0 -1-1h-4a1 1 0 0 0 -1 1v2h-2a1 1 0 0 0 -1 1v4a1 1 0 0 0 1 1h2v2a1 1 0 0 0 1 1h4a1 1 0 0 0 1-1v-2h2a1 1 0 0 0 1-1v-4a1 1 0 0 0 -1-1zm-1 4h-2a1 1 0 0 0 -1 1v2h-2v-2a1 1 0 0 0 -1-1h-2v-2h2a1 1 0 0 0 1-1v-2h2v2a1 1 0 0 0 1 1h2z"/><path d="m9 28h2v2h-2z"/><path d="m13 28h2v2h-2z"/><path d="m39 56h2v2h-2z"/><path d="m35 56h2v2h-2z"/><path d="m39 23.654a6.635 6.635 0 0 0 4.707-1.947l8-8a6.657 6.657 0 0 0 -9.414-9.414l-8 8a6.654 6.654 0 0 0 4.707 11.361zm4.707-17.947a4.654 4.654 0 0 1 6.586 0 4.664 4.664 0 0 1 0 6.586l-3.293 3.293-6.586-6.586zm-8 8 3.293-3.293 6.586 6.586-3.293 3.293a4.657 4.657 0 0 1 -6.586-6.586z"/><path d="m48.293 9.707 1.414-1.414-1.293-1.293a2 2 0 0 0 -2.828 0l-2.293 2.293 1.414 1.414 2.293-2.293z"/><path d="m56 13a4 4 0 1 0 4 4 4 4 0 0 0 -4-4zm0 6a2 2 0 1 1 2-2 2 2 0 0 1 -2 2z"/><path d="m50 21a7 7 0 1 0 7 7 7.008 7.008 0 0 0 -7-7zm0 2a4.969 4.969 0 0 1 2.753.833l-6.92 6.92a4.992 4.992 0 0 1 4.167-7.753zm0 10a4.969 4.969 0 0 1 -2.753-.833l6.92-6.92a4.992 4.992 0 0 1 -4.167 7.753z"/></g></svg>