<svg id="Layer_1" enable-background="new 0 0 510 510" height="512" viewBox="0 0 510 510" width="512" xmlns="http://www.w3.org/2000/svg"><g><path d="m510 101.937v-41.937h-110v247.01h90.307l19.693-37.01v-5.431l-25-30v-4.762l25-35v-29.614l-25-35v-3.87z" fill="#b9bed9"/><path d="m415 30h-135v80l8.327 16.29-8.327 13.71v155h135v-55l-15-15 15-15v-70l-15-15 15-15z" fill="#e8e6f2"/><path d="m280 110h135v30h-135z" fill="#69f"/><path d="m294.03 210h120.97v30h-120.97z" fill="#69f"/><path d="m345.13 200.33-37.49 47.35-52.64-44.54v-35.2l17.94-23.61c9-11.84 22.63-18.04 36.41-18.04 9.99 0 20.07 3.26 28.5 10.01 19.63 15.71 22.89 44.32 7.28 64.03z" fill="#d00050"/><path d="m255 167.94v35.2l-16.28-13.78z" fill="#ff4a4a"/><path d="m307.64 247.68-25.58 32.32h-27.06v-76.86z" fill="#ffbf80"/><path d="m255 203.14v76.86h-45v-52.85l28.72-37.79z" fill="#ffe666"/><path d="m224.47 220s-29.53 24.12-29.53 27.46l-64.94-3.4v-144.06h50v44.24l21.11 23.46c13.17 14.63 21.28 32.91 23.36 52.3z" fill="#08475e"/><path d="m130 100v144.06l-77.5-4.06c0-3.34-21.97-20-21.97-20 2.08-19.39 10.19-37.67 23.36-52.3l21.11-23.46v-44.24z" fill="#0a617d"/><path d="m210 75.37v54.63h-80v-90h44.63c19.5 0 35.37 15.87 35.37 35.37z" fill="#d00050"/><path d="m130 40v90h-80v-54.63c0-19.5 15.87-35.37 35.37-35.37z" fill="#ff4a4a"/><path d="m225 229.96v70.04h-95v-80h94.45c.35 3.29.55 6.61.55 9.96z" fill="#e8e6f2"/><path d="m130 220v80h-100v-70.04c0-3.35.2-6.67.55-9.96z" fill="#fff5f5"/><path d="m255 270h255v210h-255z" fill="#d9ac8d"/><path d="m0 270h255v210h-255z" fill="#ffe0ba"/><path d="m300 360v30h-30v30h-15v-90h15v30z" fill="#d00050"/><path d="m255 330v90h-15v-30h-30v-30h30v-30z" fill="#ff4a4a"/></g></svg>