<?xml version="1.0" encoding="utf-8"?>
<!-- Generator: Adobe Illustrator 21.0.0, SVG Export Plug-In . SVG Version: 6.00 Build 0)  -->
<svg version="1.1" id="Layer_1" xmlns="http://www.w3.org/2000/svg" xmlns:xlink="http://www.w3.org/1999/xlink" x="0px" y="0px"
	 viewBox="0 0 100 100" style="enable-background:new 0 0 100 100;" xml:space="preserve">
<g>
	<path d="M34.2,20.4c-7.5,0-13.7,6.1-13.7,13.6v14.8h27.3V34C47.8,26.5,41.7,20.4,34.2,20.4z"/>
	<path d="M20.5,65.7c0,7.5,6.1,13.6,13.7,13.6c7.5,0,13.7-6.1,13.7-13.6V50.4H20.5V65.7z M25,54.8h1.6v10.7c0,1.9,0.9,3.8,2.5,4.9
		l-0.9,1.3c-2-1.4-3.2-3.8-3.2-6.2V54.8z"/>
	<path d="M65.1,50.8c-7.7,0-14,6-14.4,13.6h28.8C79.1,56.8,72.8,50.8,65.1,50.8z"/>
	<path d="M65.1,79.6c7.7,0,14-6,14.4-13.6H50.7C51.1,73.6,57.4,79.6,65.1,79.6z"/>
</g>
</svg>
